P2
2 2
255
0 51
204 255
